<svg version="1.1" id="Layer_1" xmlns="http://www.w3.org/2000/svg" xmlns:xlink="http://www.w3.org/1999/xlink" x="0px" y="0px"
	 width="100%" viewBox="0 0 500 500" enable-background="new 0 0 500 500" xml:space="preserve">
<path fill="#9FC7F7" opacity="1.000000" stroke="none" 
	d="
M423.000000,501.000000 
	C408.645782,501.000000 394.291534,501.000000 379.410767,500.611755 
	C378.753540,497.145508 378.534760,494.068237 378.510132,490.989380 
	C378.454163,483.994080 378.494507,476.998047 378.494110,470.002289 
	C378.493744,463.662537 378.528076,457.322540 378.479614,450.983154 
	C378.428558,444.305054 378.203888,437.627228 378.227966,430.949921 
	C378.251404,424.450317 378.639343,417.950745 378.605194,411.452515 
	C378.556396,402.178009 378.112000,392.904480 378.127472,383.631042 
	C378.142944,374.363525 378.590515,365.097565 378.709747,355.829132 
	C378.805878,348.355927 378.928528,340.869629 378.595886,333.408905 
	C378.364990,328.230042 377.381226,323.084686 376.824768,317.568542 
	C380.601379,307.988129 384.287018,298.763550 388.503296,288.210907 
	C384.907623,289.058563 382.643280,289.592346 380.058899,289.865326 
	C379.177612,283.769989 378.241119,277.942505 378.131317,272.099518 
	C377.884094,258.945801 377.945343,245.783417 378.071838,232.626404 
	C378.187469,220.599594 378.664520,208.576279 378.780365,196.549469 
	C378.908661,183.226120 378.807800,169.900558 378.806732,156.575958 
	C378.805634,143.251358 378.804626,129.926758 378.803528,116.602150 
	C378.802460,103.277573 378.899628,89.952042 378.771149,76.628693 
	C378.655212,64.602295 378.059692,52.577480 378.101227,40.553440 
	C378.146790,27.368080 378.679535,14.184407 379.000000,1.000000 
	C393.354218,1.000000 407.708466,1.000000 422.531342,1.468657 
	C423.000000,168.291550 423.000000,334.645782 423.000000,501.000000 
z"/>
<path fill="#9AC1FB" opacity="1.000000" stroke="none" 
	d="
M423.468658,501.000000 
	C423.000000,334.645782 423.000000,168.291550 423.000000,1.468657 
	C436.354218,1.000000 449.708466,1.000000 463.531342,1.468657 
	C464.000000,168.291550 464.000000,334.645782 464.000000,501.000000 
	C450.645782,501.000000 437.291534,501.000000 423.468658,501.000000 
z"/>
<path fill="#B5E2E8" opacity="1.000000" stroke="none" 
	d="
M227.000000,501.000000 
	C213.312439,501.000000 199.624878,501.000000 185.468658,500.531342 
	C185.025299,449.982910 185.050583,399.903107 185.489471,349.834839 
	C187.291916,346.506470 188.893356,343.149048 185.078857,339.755005 
	C185.500519,330.254730 185.950577,321.237244 186.603394,312.532532 
	C191.915039,318.970306 197.521057,319.425751 204.944092,315.382324 
	C208.602264,316.193756 210.836823,316.689392 213.414032,317.261017 
	C213.414032,307.291840 213.414032,298.370361 213.414032,288.408844 
	C210.580383,289.185303 208.292816,289.812164 205.056442,290.699005 
	C198.018768,286.176086 191.256744,286.946259 186.268036,293.302124 
	C185.762650,283.907318 185.380859,274.966919 185.440582,266.023743 
	C187.661469,266.020935 189.440842,266.020935 192.349731,266.020935 
	C187.711426,249.910751 200.361725,240.528320 205.912689,228.509155 
	C200.438171,226.764679 197.303223,228.612320 195.115906,233.229614 
	C193.302475,237.057678 190.849930,240.582962 188.207214,245.040787 
	C186.335052,241.880035 184.930664,239.509018 183.871628,236.868256 
	C184.477997,234.493195 184.966110,232.387970 184.967178,230.282486 
	C185.006256,153.854996 185.000000,77.427498 185.000000,1.000000 
	C199.354233,1.000000 213.708450,1.000000 228.531342,1.468657 
	C229.000000,49.087059 228.963867,96.236923 229.108749,143.386215 
	C229.115845,145.698654 230.705765,148.006241 231.255859,150.513733 
	C221.207718,155.609222 219.818146,164.131531 227.488205,171.928482 
	C229.697540,174.174362 231.891388,176.435486 233.838165,178.933472 
	C230.791138,182.022217 227.773865,184.682999 225.255417,187.753006 
	C220.946381,193.005722 221.855545,198.109070 228.025452,206.294952 
	C227.594986,217.634018 227.175400,228.568298 226.490738,239.271133 
	C224.334457,236.506805 222.262360,234.086517 220.597870,231.412506 
	C218.515701,228.067535 215.901917,227.078796 212.291473,228.522476 
	C212.291473,241.028595 212.291473,253.397369 212.291473,265.635681 
	C214.642044,265.635681 216.553513,265.635681 219.095276,265.635681 
	C219.095276,257.151123 219.095276,249.016357 219.095276,239.423096 
	C223.023834,245.102615 226.040115,249.463257 228.910934,254.168259 
	C228.303635,256.095428 227.438141,257.680115 227.445679,259.260681 
	C227.493271,269.242645 227.734436,279.223724 227.480957,289.126129 
	C225.275574,289.047180 223.500961,289.047180 221.606735,289.047180 
	C221.606735,298.606049 221.606735,307.647308 221.606735,316.909943 
	C224.001984,316.909943 225.984161,316.909943 227.974945,317.325928 
	C227.980560,323.307434 228.219986,328.888885 227.856323,334.430786 
	C227.708984,336.676086 226.831253,339.483643 225.261307,340.898590 
	C221.972504,343.862732 223.127182,348.041290 224.862228,349.179871 
	C229.845276,352.449860 226.814621,356.944122 227.809631,360.703735 
	C228.169144,362.062134 227.833359,363.601990 227.831436,365.059021 
	C227.819077,374.398468 227.822876,383.737915 227.798828,393.077332 
	C227.775253,402.225952 227.682526,411.374573 227.698044,420.523071 
	C227.713867,429.858765 227.897232,439.194458 227.872910,448.529816 
	C227.849060,457.682800 227.683670,466.835785 227.529221,475.987915 
	C227.388504,484.325897 227.179123,492.662689 227.000000,501.000000 
M208.602325,343.422333 
	C205.720108,343.134857 203.606766,344.684082 204.511292,347.248077 
	C205.066574,348.822052 208.063950,349.534515 209.964722,350.633850 
	C210.501389,350.099640 211.038055,349.565430 211.574738,349.031219 
	C210.846146,347.197693 210.117569,345.364136 208.602325,343.422333 
M197.965851,348.581146 
	C197.848190,347.004852 197.924591,345.365662 197.450974,343.904785 
	C197.354950,343.608612 194.526566,343.537445 194.108917,344.148834 
	C193.326477,345.294250 193.385910,347.014679 193.095169,348.495941 
	C194.637299,348.763885 196.179413,349.031799 197.965851,348.581146 
z"/>
<path fill="#A4CDF3" opacity="1.000000" stroke="none" 
	d="
M376.733795,317.924377 
	C377.381226,323.084686 378.364990,328.230042 378.595886,333.408905 
	C378.928528,340.869629 378.805878,348.355927 378.709747,355.829132 
	C378.590515,365.097565 378.142944,374.363525 378.127472,383.631042 
	C378.112000,392.904480 378.556396,402.178009 378.605194,411.452515 
	C378.639343,417.950745 378.251404,424.450317 378.227966,430.949921 
	C378.203888,437.627228 378.428558,444.305054 378.479614,450.983154 
	C378.528076,457.322540 378.493744,463.662537 378.494110,470.002289 
	C378.494507,476.998047 378.454163,483.994080 378.510132,490.989380 
	C378.534760,494.068237 378.753540,497.145508 378.942078,500.611755 
	C365.645782,501.000000 352.291534,501.000000 338.468658,500.531342 
	C338.000000,452.654694 338.046539,405.246582 337.916290,357.838959 
	C337.905243,353.819550 336.086792,349.786560 336.194153,345.789062 
	C336.451294,336.212921 337.356018,326.654144 338.399231,317.118042 
	C348.145050,319.261353 354.928284,315.539642 356.799652,307.008911 
	C353.815308,306.429108 351.306702,306.055206 348.920898,309.036682 
	C346.251343,312.372742 341.172394,312.279816 338.207764,309.486572 
	C334.945343,306.412720 334.828278,300.123016 337.970612,296.747375 
	C340.694397,293.821381 345.431549,293.870514 348.892487,296.325745 
	C351.024353,297.838104 353.681152,298.610504 357.021698,300.134613 
	C355.088928,290.716400 349.705841,287.540375 339.173767,287.992340 
	C338.553558,285.434357 338.035736,283.164429 338.034760,280.894348 
	C337.994141,187.596237 338.000000,94.298119 338.000000,1.000000 
	C351.354218,1.000000 364.708466,1.000000 378.531342,1.000000 
	C378.679535,14.184407 378.146790,27.368080 378.101227,40.553440 
	C378.059692,52.577480 378.655212,64.602295 378.771149,76.628693 
	C378.899628,89.952042 378.802460,103.277573 378.803528,116.602150 
	C378.804626,129.926758 378.805634,143.251358 378.806732,156.575958 
	C378.807800,169.900558 378.908661,183.226120 378.780365,196.549469 
	C378.664520,208.576279 378.187469,220.599594 378.071838,232.626404 
	C377.945343,245.783417 377.884094,258.945801 378.131317,272.099518 
	C378.241119,277.942505 379.177612,283.769989 379.968384,290.230713 
	C378.235596,295.941315 376.273315,301.025665 373.844971,307.317719 
	C371.670197,301.789642 369.810394,297.865997 368.591919,293.752380 
	C367.206177,289.074219 364.575287,287.867493 359.821289,289.635925 
	C362.586243,296.531799 364.887909,303.480621 368.105652,309.975616 
	C371.710022,317.250977 369.339142,321.930756 361.091858,321.264954 
	C360.851074,321.245544 360.577850,321.627716 360.289124,321.845795 
	C360.289124,323.268707 360.289124,324.707794 360.289124,326.096405 
	C369.045502,327.825623 371.832794,326.410889 376.733795,317.924377 
M356.886230,343.321716 
	C356.635773,344.798370 356.224792,346.272430 356.201294,347.752716 
	C356.189148,348.516785 356.865570,349.291779 357.230927,350.061859 
	C358.117157,349.523224 359.831116,348.755219 359.755676,348.483124 
	C359.255951,346.680084 358.372437,344.983429 356.886230,343.321716 
z"/>
<path fill="#C7F7DC" opacity="1.000000" stroke="none" 
	d="
M76.000000,501.000000 
	C63.312439,501.000000 50.624878,501.000000 37.468658,500.531342 
	C37.000000,333.708466 37.000000,167.354233 37.000000,1.000000 
	C49.354229,1.000000 61.708454,1.000000 74.531342,1.468657 
	C75.000000,165.335999 74.994743,328.734680 75.041641,492.133362 
	C75.042488,495.088989 75.666672,498.044464 76.000000,501.000000 
z"/>
<path fill="#96BCFE" opacity="1.000000" stroke="none" 
	d="
M464.468658,501.000000 
	C464.000000,334.645782 464.000000,168.291550 464.000000,1.468657 
	C476.323944,1.000000 488.647858,1.000000 500.954895,1.000000 
	C500.954895,167.666672 500.954895,334.333344 500.954895,501.000000 
	C488.918976,501.000000 476.928162,501.000000 464.468658,501.000000 
z"/>
<path fill="#CBFDD9" opacity="1.000000" stroke="none" 
	d="
M36.531342,1.000000 
	C37.000000,167.354233 37.000000,333.708466 37.000000,500.531342 
	C25.009184,501.000000 13.018368,501.000000 1.044702,501.000000 
	C1.044702,334.333313 1.044702,167.666656 1.044702,1.000000 
	C12.747164,1.000000 24.404922,1.000000 36.531342,1.000000 
z"/>
<path fill="#C2F2DF" opacity="1.000000" stroke="none" 
	d="
M76.468658,501.000000 
	C75.666672,498.044464 75.042488,495.088989 75.041641,492.133362 
	C74.994743,328.734680 75.000000,165.335999 75.000000,1.468657 
	C86.687561,1.000000 98.375122,1.000000 110.531342,1.468657 
	C111.000000,168.291550 111.000000,334.645782 111.000000,501.000000 
	C99.645775,501.000000 88.291542,501.000000 76.468658,501.000000 
z"/>
<path fill="#ACD7EE" opacity="1.000000" stroke="none" 
	d="
M306.000000,501.000000 
	C293.645782,501.000000 281.291534,501.000000 268.482788,500.593781 
	C268.291809,495.121704 268.718658,490.057922 268.783356,484.989532 
	C268.902130,475.686981 268.817688,466.381714 268.798920,457.077606 
	C268.779755,447.582062 268.716248,438.086548 268.711884,428.591034 
	C268.707672,419.446808 268.770355,410.302612 268.773865,401.158386 
	C268.777527,391.662872 268.707245,382.167175 268.741364,372.671844 
	C268.768280,365.175140 268.904388,357.678864 269.366638,350.144775 
	C271.033173,348.926056 272.325134,347.744934 273.617065,346.563782 
	C272.077484,345.370728 270.537933,344.177673 268.987946,342.601379 
	C268.938568,333.713318 268.899597,325.208435 268.834198,316.257812 
	C268.838379,310.987213 268.658752,306.149139 268.961334,301.341461 
	C269.239197,296.926300 272.327637,294.085266 275.936829,294.453156 
	C280.287201,294.896637 281.122406,298.020050 281.147644,301.628937 
	C281.182312,306.577576 281.156311,311.526672 281.156311,316.717407 
	C283.662170,316.717407 285.552246,316.717407 287.914032,316.717407 
	C287.914032,311.147369 288.028351,305.857574 287.879700,300.575165 
	C287.748962,295.928986 286.697144,291.504852 282.117493,289.154022 
	C277.332214,286.697601 273.093445,288.317261 269.182678,291.053070 
	C269.126160,282.242035 269.127136,273.891632 269.530792,265.640015 
	C285.601166,269.502319 298.318604,259.546387 295.340179,245.692245 
	C289.126770,245.692245 282.888245,245.692245 276.502411,245.692245 
	C276.502411,247.633408 276.502411,249.223251 276.502411,251.160553 
	C280.443512,251.386368 284.124023,251.597260 288.929352,251.872589 
	C287.193939,254.389923 286.367310,256.228821 284.996094,257.462341 
	C280.188690,261.787079 271.223663,260.979248 266.900299,256.026215 
	C262.321442,250.780518 262.769928,241.592484 267.832489,236.928528 
	C272.776428,232.373825 281.690765,232.301956 285.864044,237.413925 
	C288.534637,240.685181 291.133087,241.309601 296.399048,239.580093 
	C293.145813,236.003799 290.871155,232.539200 287.733612,230.265106 
	C282.090729,226.175217 275.574341,226.334885 269.049316,227.803406 
	C269.022278,220.600128 269.012329,213.852859 269.338074,206.979950 
	C280.698334,202.365936 282.492310,193.387299 274.078247,184.852203 
	C271.993805,182.737747 269.938202,180.594879 268.133972,178.217087 
	C270.287994,176.091293 272.099915,174.126907 274.082703,172.353592 
	C278.277344,168.602066 280.390472,164.092255 278.717407,158.536652 
	C277.014496,152.881989 272.544830,150.590149 266.999573,149.551788 
	C267.072327,145.039429 267.137299,140.951889 267.218964,136.864685 
	C267.348572,130.378418 267.627899,123.891594 267.592316,117.406395 
	C267.541504,108.149261 267.107178,98.893066 267.126343,89.637062 
	C267.145508,80.387527 267.696381,71.138634 267.691528,61.889633 
	C267.686707,52.637936 267.184204,43.387569 267.078888,34.134583 
	C266.953217,23.090853 267.017822,12.044957 267.000000,1.000000 
	C278.020905,1.000000 289.041779,1.000000 300.531342,1.468657 
	C301.000000,76.335205 300.983978,150.733109 301.087524,225.130859 
	C301.090240,227.097488 302.393616,229.062302 302.943665,231.377960 
	C299.044159,239.492767 301.071503,244.896088 309.093231,247.826843 
	C312.657440,249.129044 316.494598,249.694244 320.037445,251.042007 
	C324.070862,252.576385 324.850464,256.781342 321.851868,259.252167 
	C318.292267,262.185272 310.082306,261.458984 307.975891,257.378937 
	C305.892792,253.343979 303.308197,254.314392 300.157959,254.935776 
	C299.813416,260.493347 303.725708,263.002625 306.863281,266.285889 
	C306.465851,273.741028 306.233826,280.805298 305.639709,287.962891 
	C297.377899,290.328766 293.223694,295.541321 293.294006,303.093018 
	C293.366394,310.863983 297.576935,315.829254 306.000366,318.541077 
	C306.011749,327.365601 306.023438,335.726349 306.014343,344.505585 
	C306.092468,346.576263 306.191376,348.228424 306.011169,350.126648 
	C305.821381,358.481232 305.982849,366.589783 305.987854,374.698364 
	C306.013855,416.798920 306.000000,458.899445 306.000000,501.000000 
M282.818115,346.715851 
	C283.083496,347.719208 283.348877,348.722534 283.957092,351.022095 
	C284.829895,348.537476 285.253082,347.332794 285.892853,345.511597 
	C286.870087,347.373871 287.501251,348.576630 288.491272,350.463287 
	C289.496948,343.001587 287.514252,341.899963 278.931091,344.357452 
	C279.034424,346.102203 279.140747,347.898193 279.300903,350.602448 
	C280.758636,348.465637 281.559662,347.291443 282.818115,346.715851 
M294.366028,345.923584 
	C295.385529,347.304626 296.404999,348.685699 297.424500,350.066742 
	C298.424988,349.185669 299.836761,348.475891 300.297485,347.369934 
	C300.674774,346.464203 299.919189,345.086548 299.665833,343.918091 
	C298.001648,344.361603 296.337494,344.805115 294.366028,345.923584 
z"/>
<path fill="#BAE8E5" opacity="1.000000" stroke="none" 
	d="
M186.400635,312.219757 
	C185.950577,321.237244 185.500519,330.254730 185.058640,340.172974 
	C184.495331,341.919952 183.923828,342.766144 183.352310,343.612335 
	C182.060928,342.551483 180.769562,341.490631 179.298172,340.281891 
	C179.298172,343.557251 179.298172,346.666870 179.298172,349.850037 
	C180.871979,348.321655 182.076263,347.152130 183.280563,345.982605 
	C183.878998,347.262848 184.477432,348.543091 185.075867,349.823334 
	C185.050583,399.903107 185.025299,449.982910 185.000000,500.531342 
	C173.979111,501.000000 162.958206,501.000000 151.484772,500.578094 
	C151.354828,497.202942 151.953476,494.250122 151.958237,491.296356 
	C152.020966,452.390625 152.055893,413.484650 151.954437,374.579102 
	C151.933289,366.471100 151.330185,358.364655 151.344681,350.131226 
	C155.661362,347.251038 154.557205,344.999084 151.065308,342.577576 
	C151.419525,333.828644 151.708145,325.492126 152.430664,317.103516 
	C154.441437,316.927979 156.018280,316.804474 157.923645,316.655243 
	C157.923645,311.510345 157.767227,306.861603 157.967590,302.228302 
	C158.168396,297.585083 161.474579,294.169708 165.283615,294.230835 
	C169.334305,294.295837 171.329773,296.735657 171.480774,302.214752 
	C171.612640,307.000000 171.508270,311.791779 171.508270,316.766815 
	C174.056381,316.766815 175.993301,316.766815 178.216812,316.766815 
	C178.216812,311.233826 178.527313,305.916168 178.154266,300.646851 
	C177.291473,288.460358 169.433456,284.671783 158.897171,291.120056 
	C158.743423,291.214142 158.357346,290.928680 157.706146,290.674622 
	C157.706146,286.866150 157.706146,282.921112 157.706146,278.687103 
	C155.575745,278.501129 153.792953,278.345490 152.007446,277.709290 
	C152.003159,185.152512 152.001572,93.076256 152.000000,1.000000 
	C162.687561,1.000000 173.375122,1.000000 184.531342,1.000000 
	C185.000000,77.427498 185.006256,153.854996 184.967178,230.282486 
	C184.966110,232.387970 184.477997,234.493195 183.656387,236.626984 
	C180.051102,232.208176 178.660950,225.185410 170.547623,228.610123 
	C170.599472,228.921387 170.565872,229.287277 170.718246,229.541885 
	C171.657303,231.111145 172.602905,232.678711 173.611160,234.203979 
	C179.822342,243.600128 186.933746,252.667740 184.658875,265.104248 
	C184.608124,265.381653 184.878494,265.717773 184.999069,266.026520 
	C185.380859,274.966919 185.762650,283.907318 186.128296,293.610107 
	C182.886200,300.375275 183.317368,306.318939 186.400635,312.219757 
M159.482193,344.566895 
	C159.589249,346.285126 159.696289,348.003387 159.808350,349.802063 
	C161.362823,349.802063 162.914825,349.802063 163.993683,349.802063 
	C164.131668,347.496735 164.246918,345.571228 164.392715,343.135406 
	C162.750931,343.389252 161.212662,343.627106 159.482193,344.566895 
z"/>
<path fill="#A8D2F1" opacity="1.000000" stroke="none" 
	d="
M306.035126,344.087067 
	C306.023438,335.726349 306.011749,327.365601 306.394470,318.472687 
	C309.763031,317.028931 312.737152,316.117371 314.634979,315.535675 
	C317.747131,316.226532 320.053925,316.738647 322.690247,317.323883 
	C322.690247,307.389893 322.690247,298.323120 322.690247,288.452332 
	C319.843964,289.170868 317.496552,289.763428 315.005676,290.392212 
	C312.289337,289.631195 309.145569,288.750397 306.001801,287.869598 
	C306.233826,280.805298 306.465851,273.741028 307.276794,266.351227 
	C312.907745,265.935455 318.093964,266.495544 322.957764,265.492462 
	C325.558868,264.956024 328.474243,262.155823 329.727844,259.624542 
	C332.779327,253.463028 329.794800,247.602203 322.844391,245.137482 
	C319.102234,243.810471 315.075592,243.266205 311.374725,241.852081 
	C309.980927,241.319489 308.634521,239.462830 308.235504,237.953583 
	C307.974426,236.965988 309.162292,235.121643 310.209167,234.352310 
	C313.149628,232.191376 319.127411,232.725418 321.192444,235.700012 
	C323.504486,239.030457 326.022095,238.034851 328.842041,237.503296 
	C328.185364,230.863724 326.296722,229.216339 317.000214,226.418304 
	C316.999969,150.971466 317.000000,75.985733 317.000000,1.000000 
	C323.687653,1.000000 330.375275,1.000000 337.531464,1.000000 
	C338.000000,94.298119 337.994141,187.596237 338.034760,280.894348 
	C338.035736,283.164429 338.553558,285.434357 338.878143,288.203247 
	C332.910492,291.000549 329.483978,295.319122 328.998322,301.766296 
	C328.460602,308.905212 331.899170,313.801514 337.999390,317.088379 
	C337.356018,326.654144 336.451294,336.212921 336.194153,345.789062 
	C336.086792,349.786560 337.905243,353.819550 337.916290,357.838959 
	C338.046539,405.246582 338.000000,452.654694 338.000000,500.531342 
	C327.645782,501.000000 317.291534,501.000000 306.468658,501.000000 
	C306.000000,458.899445 306.013855,416.798920 305.987854,374.698364 
	C305.982849,366.589783 305.821381,358.481232 306.403625,350.176086 
	C309.923370,350.307770 311.260681,349.686462 310.712677,346.219025 
	C310.125824,342.506073 308.432678,342.943207 306.035126,344.087067 
M330.731049,340.154938 
	C328.845673,340.154938 326.960297,340.154938 325.065674,340.154938 
	C325.065674,343.807861 325.065674,346.813995 325.065674,350.291168 
	C326.975891,348.558868 328.405792,347.262207 329.842712,345.959137 
	C328.845184,345.099579 327.806244,344.204346 326.743713,343.288788 
	C328.667725,342.154724 330.019928,341.357697 330.731049,340.154938 
z"/>
<path fill="#B1DCEA" opacity="1.000000" stroke="none" 
	d="
M268.860596,316.703583 
	C268.899597,325.208435 268.938568,333.713318 268.712372,342.777161 
	C266.096222,345.819763 265.641022,348.152527 268.992035,350.182373 
	C268.904388,357.678864 268.768280,365.175140 268.741364,372.671844 
	C268.707245,382.167175 268.777527,391.662872 268.773865,401.158386 
	C268.770355,410.302612 268.707672,419.446808 268.711884,428.591034 
	C268.716248,438.086548 268.779755,447.582062 268.798920,457.077606 
	C268.817688,466.381714 268.902130,475.686981 268.783356,484.989532 
	C268.718658,490.057922 268.291809,495.121704 268.014160,500.593781 
	C254.645767,501.000000 241.291550,501.000000 227.468658,501.000000 
	C227.179123,492.662689 227.388504,484.325897 227.529221,475.987915 
	C227.683670,466.835785 227.849060,457.682800 227.872910,448.529816 
	C227.897232,439.194458 227.713867,429.858765 227.698044,420.523071 
	C227.682526,411.374573 227.775253,402.225952 227.798828,393.077332 
	C227.822876,383.737915 227.819077,374.398468 227.831436,365.059021 
	C227.833359,363.601990 228.169144,362.062134 227.809631,360.703735 
	C226.814621,356.944122 229.845276,352.449860 224.862228,349.179871 
	C223.127182,348.041290 221.972504,343.862732 225.261307,340.898590 
	C226.831253,339.483643 227.708984,336.676086 227.856323,334.430786 
	C228.219986,328.888885 227.980560,323.307434 227.998688,316.866425 
	C228.037064,311.691467 227.851700,307.377686 228.144196,303.096588 
	C228.418060,299.088226 229.802017,295.287292 234.544296,294.982361 
	C238.871933,294.704102 238.909775,292.552460 237.717545,288.484894 
	C234.517853,289.355927 231.383560,290.209198 228.064774,291.112671 
	C228.037292,290.770325 227.974487,289.987701 227.911697,289.205078 
	C227.734436,279.223724 227.493271,269.242645 227.445679,259.260681 
	C227.438141,257.680115 228.303635,256.095428 229.201309,254.313782 
	C231.046082,253.429565 232.872116,253.092178 233.787537,251.995010 
	C236.802811,248.381119 239.488388,244.492157 242.300583,240.708832 
	C242.646805,240.826675 242.993042,240.944504 243.339264,241.062347 
	C243.339264,249.275986 243.339264,257.489624 243.339264,265.691833 
	C245.834656,265.691833 247.754135,265.691833 249.811890,265.691833 
	C249.811890,253.007141 249.811890,240.639191 249.811890,227.641281 
	C238.479660,228.337387 238.082870,240.560684 230.382889,244.807358 
	C229.172928,243.037720 227.964371,241.270142 226.755829,239.502563 
	C227.175400,228.568298 227.594986,217.634018 228.434052,206.323090 
	C235.669830,208.364197 241.017792,206.078262 245.572220,200.886536 
	C247.193314,199.038605 249.116745,197.455902 251.211472,195.913269 
	C252.827728,197.350418 254.199509,198.567169 255.429443,199.913513 
	C259.105225,203.937195 263.075500,207.352631 269.002380,207.105591 
	C269.012329,213.852859 269.022278,220.600128 268.816193,228.032745 
	C261.091949,232.398254 256.805573,238.335785 256.725128,246.763535 
	C256.640076,255.673004 261.401733,261.652802 269.128113,265.541260 
	C269.127136,273.891632 269.126160,282.242035 269.077332,291.324463 
	C268.318756,292.380005 267.236511,293.179993 266.951508,292.957703 
	C258.894073,286.674011 257.471161,286.519897 250.840149,290.648621 
	C247.829391,289.828003 245.732559,289.256500 243.279846,288.587982 
	C243.279846,298.599976 243.279846,307.643555 243.279846,316.785797 
	C245.424515,316.785797 247.203049,316.785797 249.626236,316.785797 
	C249.626236,311.954803 249.502213,307.333252 249.659439,302.721344 
	C249.833542,297.614685 252.680008,293.979584 256.293610,294.282806 
	C261.427368,294.713562 262.001495,298.551971 262.018585,302.624023 
	C262.037964,307.242340 262.023041,311.860809 262.023041,316.703583 
	C264.655518,316.703583 266.758057,316.703583 268.860596,316.703583 
M256.976440,347.550293 
	C253.429230,342.654510 257.841278,342.461090 260.651398,340.724121 
	C258.405914,340.589905 255.609940,340.652985 254.695343,341.996674 
	C253.699463,343.459808 253.674286,346.640472 254.664124,348.090881 
	C255.590576,349.448425 258.399323,349.521393 260.379700,350.159668 
	C260.506287,349.595001 260.632874,349.030334 260.759491,348.465668 
	C259.744019,348.268433 258.728516,348.071228 256.976440,347.550293 
M237.064194,346.081543 
	C237.469299,347.358063 237.874405,348.634613 238.601273,350.925049 
	C241.782791,343.845886 235.404022,343.529510 233.419418,339.770538 
	C233.419418,343.638916 233.419418,346.624054 233.419418,350.419006 
	C234.803604,348.265625 235.670670,346.916687 237.064194,346.081543 
z"/>
<path fill="#BFEDE2" opacity="1.000000" stroke="none" 
	d="
M111.468582,501.000000 
	C111.000000,334.645782 111.000000,168.291550 111.000000,1.468657 
	C118.020950,1.000000 125.041901,1.000000 132.531433,1.468657 
	C133.000137,94.566544 133.000275,187.195786 132.536636,279.886536 
	C127.488716,279.948059 122.904556,279.948059 118.377327,279.948059 
	C118.377327,292.745483 118.377327,304.761963 118.377327,317.031616 
	C120.729416,316.927704 122.630249,316.843719 125.060745,316.736359 
	C125.060745,312.629059 125.060745,309.059479 125.060745,305.247894 
	C128.416824,305.247894 131.208817,305.247894 133.921021,305.643127 
	C133.561707,316.442078 133.218430,326.844849 133.065125,337.250427 
	C133.039459,338.992462 133.837692,340.746613 134.184372,342.871704 
	C134.234604,344.780518 134.355682,346.312805 134.131912,348.117310 
	C133.524719,350.493744 133.035187,352.597778 133.033325,354.702271 
	C132.990204,403.468170 133.000000,452.234070 133.000000,501.000000 
	C125.979050,501.000000 118.958107,501.000000 111.468582,501.000000 
z"/>
<path fill="#BDECE3" opacity="1.000000" stroke="none" 
	d="
M134.255219,342.495178 
	C133.837692,340.746613 133.039459,338.992462 133.065125,337.250427 
	C133.218430,326.844849 133.561707,316.442078 134.310364,305.559875 
	C142.579269,303.805695 147.020752,298.729218 146.572235,291.602631 
	C146.135147,284.658020 141.288223,280.451874 133.000397,279.825012 
	C133.000275,187.195786 133.000137,94.566544 133.000000,1.468657 
	C139.021149,1.000000 145.042297,1.000000 151.531723,1.000000 
	C152.001572,93.076256 152.003159,185.152512 151.737167,278.009003 
	C151.375549,291.182831 151.273956,303.576416 151.221832,315.970184 
	C151.220200,316.364197 151.726990,316.760406 151.996765,317.155579 
	C151.708145,325.492126 151.419525,333.828644 150.720917,342.670715 
	C149.248367,344.476166 147.286697,345.847015 147.382019,347.055664 
	C147.473083,348.210724 149.704620,349.197021 150.995285,350.257477 
	C151.330185,358.364655 151.933289,366.471100 151.954437,374.579102 
	C152.055893,413.484650 152.020966,452.390625 151.958237,491.296356 
	C151.953476,494.250122 151.354828,497.202942 151.016113,500.578094 
	C145.311966,501.000000 139.623917,501.000000 133.467941,501.000000 
	C133.000000,452.234070 132.990204,403.468170 133.033325,354.702271 
	C133.035187,352.597778 133.524719,350.493744 134.382385,348.341431 
	C136.963181,348.873871 138.948669,349.454407 141.224991,350.119934 
	C138.998291,347.730957 137.523376,346.148529 136.048462,344.566132 
	C137.616592,343.526611 139.184738,342.487091 140.704742,341.479523 
	C138.592407,339.208649 138.311050,339.231812 134.255219,342.495178 
z"/>
<path fill="#B1DCEB" opacity="1.000000" stroke="none" 
	d="
M266.531342,1.000000 
	C267.017822,12.044957 266.953217,23.090853 267.078888,34.134583 
	C267.184204,43.387569 267.686707,52.637936 267.691528,61.889633 
	C267.696381,71.138634 267.145508,80.387527 267.126343,89.637062 
	C267.107178,98.893066 267.541504,108.149261 267.592316,117.406395 
	C267.627899,123.891594 267.348572,130.378418 267.218964,136.864685 
	C267.137299,140.951889 267.072327,145.039429 266.644928,149.655731 
	C259.329987,151.280243 256.113251,157.376251 251.019516,161.293182 
	C248.926239,159.516464 247.033035,157.930756 245.387161,156.120193 
	C241.654129,152.013580 237.375549,149.377945 231.558640,150.316086 
	C230.705765,148.006241 229.115845,145.698654 229.108749,143.386215 
	C228.963867,96.236923 229.000000,49.087059 229.000000,1.468657 
	C241.354233,1.000000 253.708450,1.000000 266.531342,1.000000 
z"/>
<path fill="#AAD3F0" opacity="1.000000" stroke="none" 
	d="
M316.533142,1.000000 
	C317.000000,75.985733 316.999969,150.971466 316.569153,226.473694 
	C311.382446,227.022156 306.750366,227.454315 303.090454,231.027954 
	C302.393616,229.062302 301.090240,227.097488 301.087524,225.130859 
	C300.983978,150.733109 301.000000,76.335205 301.000000,1.468657 
	C306.022095,1.000000 311.044189,1.000000 316.533142,1.000000 
z"/>
<path fill="#A4CB37" opacity="1.000000" stroke="none" 
	d="
M376.824768,317.568542 
	C371.832794,326.410889 369.045502,327.825623 360.289124,326.096405 
	C360.289124,324.707794 360.289124,323.268707 360.289124,321.845795 
	C360.577850,321.627716 360.851074,321.245544 361.091858,321.264954 
	C369.339142,321.930756 371.710022,317.250977 368.105652,309.975616 
	C364.887909,303.480621 362.586243,296.531799 359.821289,289.635925 
	C364.575287,287.867493 367.206177,289.074219 368.591919,293.752380 
	C369.810394,297.865997 371.670197,301.789642 373.844971,307.317719 
	C376.273315,301.025665 378.235596,295.941315 380.288391,290.491577 
	C382.643280,289.592346 384.907623,289.058563 388.503296,288.210907 
	C384.287018,298.763550 380.601379,307.988129 376.824768,317.568542 
z"/>
<path fill="#A3CB34" opacity="1.000000" stroke="none" 
	d="
M231.255859,150.513733 
	C237.375549,149.377945 241.654129,152.013580 245.387161,156.120193 
	C247.033035,157.930756 248.926239,159.516464 251.092224,161.635864 
	C256.941284,167.533340 262.405304,172.999207 267.869324,178.465073 
	C269.938202,180.594879 271.993805,182.737747 274.078247,184.852203 
	C282.492310,193.387299 280.698334,202.365936 269.338074,206.979950 
	C263.075500,207.352631 259.105225,203.937195 255.429443,199.913513 
	C254.199509,198.567169 252.827728,197.350418 251.054657,195.642365 
	C245.089798,189.703400 239.591064,184.196503 234.092331,178.689606 
	C231.891388,176.435486 229.697540,174.174362 227.488205,171.928482 
	C219.818146,164.131531 221.207718,155.609222 231.255859,150.513733 
z"/>
<path fill="#A4CC34" opacity="1.000000" stroke="none" 
	d="
M226.490723,239.271133 
	C227.964371,241.270142 229.172928,243.037720 230.382889,244.807358 
	C238.082870,240.560684 238.479660,228.337387 249.811890,227.641281 
	C249.811890,240.639191 249.811890,253.007141 249.811890,265.691833 
	C247.754135,265.691833 245.834656,265.691833 243.339264,265.691833 
	C243.339264,257.489624 243.339264,249.275986 243.339264,241.062347 
	C242.993042,240.944504 242.646805,240.826675 242.300583,240.708832 
	C239.488388,244.492157 236.802811,248.381119 233.787537,251.995010 
	C232.872116,253.092178 231.046082,253.429565 229.346756,253.969421 
	C226.040115,249.463257 223.023834,245.102615 219.095276,239.423096 
	C219.095276,249.016357 219.095276,257.151123 219.095276,265.635681 
	C216.553513,265.635681 214.642044,265.635681 212.291473,265.635681 
	C212.291473,253.397369 212.291473,241.028595 212.291473,228.522476 
	C215.901917,227.078796 218.515701,228.067535 220.597870,231.412506 
	C222.262360,234.086517 224.334457,236.506805 226.490723,239.271133 
z"/>
<path fill="#A5CC38" opacity="1.000000" stroke="none" 
	d="
M186.603394,312.532532 
	C183.317368,306.318939 182.886200,300.375275 186.251907,294.064514 
	C191.256744,286.946259 198.018768,286.176086 205.056442,290.699005 
	C208.292816,289.812164 210.580383,289.185303 213.414032,288.408844 
	C213.414032,298.370361 213.414032,307.291840 213.414032,317.261017 
	C210.836823,316.689392 208.602264,316.193756 204.944092,315.382324 
	C197.521057,319.425751 191.915039,318.970306 186.603394,312.532532 
M194.854996,295.196442 
	C189.393829,299.836731 189.301407,307.785278 194.749191,310.653778 
	C198.232498,312.487854 201.613342,312.013916 204.348907,309.191833 
	C207.339584,306.106537 207.906219,302.367767 205.740585,298.643738 
	C203.475098,294.748016 200.074081,293.140991 194.854996,295.196442 
z"/>
<path fill="#049AC0" opacity="1.000000" stroke="none" 
	d="
M233.838165,178.933472 
	C239.591064,184.196503 245.089798,189.703400 250.745331,195.481201 
	C249.116745,197.455902 247.193314,199.038605 245.572220,200.886536 
	C241.017792,206.078262 235.669830,208.364197 228.444946,205.918274 
	C221.855545,198.109070 220.946381,193.005722 225.255417,187.753006 
	C227.773865,184.682999 230.791138,182.022217 233.838165,178.933472 
z"/>
<path fill="#A5CC35" opacity="1.000000" stroke="none" 
	d="
M185.440582,266.023743 
	C184.878494,265.717773 184.608124,265.381653 184.658875,265.104248 
	C186.933746,252.667740 179.822342,243.600128 173.611160,234.203979 
	C172.602905,232.678711 171.657303,231.111145 170.718246,229.541885 
	C170.565872,229.287277 170.599472,228.921387 170.547623,228.610123 
	C178.660950,225.185410 180.051102,232.208176 183.311020,236.896698 
	C184.930664,239.509018 186.335052,241.880035 188.207214,245.040787 
	C190.849930,240.582962 193.302475,237.057678 195.115906,233.229614 
	C197.303223,228.612320 200.438171,226.764679 205.912689,228.509155 
	C200.361725,240.528320 187.711426,249.910751 192.349731,266.020935 
	C189.440842,266.020935 187.661469,266.020935 185.440582,266.023743 
z"/>
<path fill="#A5CC3A" opacity="1.000000" stroke="none" 
	d="
M227.480957,289.126129 
	C227.974487,289.987701 228.037292,290.770325 228.064774,291.112671 
	C231.383560,290.209198 234.517853,289.355927 237.717545,288.484894 
	C238.909775,292.552460 238.871933,294.704102 234.544296,294.982361 
	C229.802017,295.287292 228.418060,299.088226 228.144196,303.096588 
	C227.851700,307.377686 228.037064,311.691467 227.990082,316.450439 
	C225.984161,316.909943 224.001984,316.909943 221.606735,316.909943 
	C221.606735,307.647308 221.606735,298.606049 221.606735,289.047180 
	C223.500961,289.047180 225.275574,289.047180 227.480957,289.126129 
z"/>
<path fill="#14A0C4" opacity="1.000000" stroke="none" 
	d="
M185.489471,349.834839 
	C184.477432,348.543091 183.878998,347.262848 183.280563,345.982605 
	C182.076263,347.152130 180.871979,348.321655 179.298172,349.850037 
	C179.298172,346.666870 179.298172,343.557251 179.298172,340.281891 
	C180.769562,341.490631 182.060928,342.551483 183.352310,343.612335 
	C183.923828,342.766144 184.495331,341.919952 185.087036,340.655762 
	C188.893356,343.149048 187.291916,346.506470 185.489471,349.834839 
z"/>
<path fill="#1BA3C6" opacity="1.000000" stroke="none" 
	d="
M208.995667,343.476471 
	C210.117569,345.364136 210.846146,347.197693 211.574738,349.031219 
	C211.038055,349.565430 210.501389,350.099640 209.964722,350.633850 
	C208.063950,349.534515 205.066574,348.822052 204.511292,347.248077 
	C203.606766,344.684082 205.720108,343.134857 208.995667,343.476471 
z"/>
<path fill="#1AA3C6" opacity="1.000000" stroke="none" 
	d="
M197.843689,348.940430 
	C196.179413,349.031799 194.637299,348.763885 193.095154,348.495941 
	C193.385910,347.014679 193.326477,345.294250 194.108917,344.148834 
	C194.526566,343.537445 197.354950,343.608612 197.450974,343.904785 
	C197.924591,345.365662 197.848190,347.004852 197.843689,348.940430 
z"/>
<path fill="#A4CB38" opacity="1.000000" stroke="none" 
	d="
M338.399231,317.118042 
	C331.899170,313.801514 328.460602,308.905212 328.998322,301.766296 
	C329.483978,295.319122 332.910492,291.000549 339.221558,288.491211 
	C349.705841,287.540375 355.088928,290.716400 357.021698,300.134613 
	C353.681152,298.610504 351.024353,297.838104 348.892487,296.325745 
	C345.431549,293.870514 340.694397,293.821381 337.970612,296.747375 
	C334.828278,300.123016 334.945343,306.412720 338.207764,309.486572 
	C341.172394,312.279816 346.251343,312.372742 348.920898,309.036682 
	C351.306702,306.055206 353.815308,306.429108 356.799652,307.008911 
	C354.928284,315.539642 348.145050,319.261353 338.399231,317.118042 
z"/>
<path fill="#22A3CB" opacity="1.000000" stroke="none" 
	d="
M357.250031,343.286926 
	C358.372437,344.983429 359.255951,346.680084 359.755676,348.483124 
	C359.831116,348.755219 358.117157,349.523224 357.230927,350.061859 
	C356.865570,349.291779 356.189148,348.516785 356.201294,347.752716 
	C356.224792,346.272430 356.635773,344.798370 357.250031,343.286926 
z"/>
<path fill="#A4CB35" opacity="1.000000" stroke="none" 
	d="
M269.530792,265.640015 
	C261.401733,261.652802 256.640076,255.673004 256.725128,246.763535 
	C256.805573,238.335785 261.091949,232.398254 268.833252,228.488754 
	C275.574341,226.334885 282.090729,226.175217 287.733612,230.265106 
	C290.871155,232.539200 293.145813,236.003799 296.399048,239.580093 
	C291.133087,241.309601 288.534637,240.685181 285.864044,237.413925 
	C281.690765,232.301956 272.776428,232.373825 267.832489,236.928528 
	C262.769928,241.592484 262.321442,250.780518 266.900299,256.026215 
	C271.223663,260.979248 280.188690,261.787079 284.996094,257.462341 
	C286.367310,256.228821 287.193939,254.389923 288.929352,251.872589 
	C284.124023,251.597260 280.443512,251.386368 276.502411,251.160553 
	C276.502411,249.223251 276.502411,247.633408 276.502411,245.692245 
	C282.888245,245.692245 289.126770,245.692245 295.340179,245.692245 
	C298.318604,259.546387 285.601166,269.502319 269.530792,265.640015 
z"/>
<path fill="#A4CC36" opacity="1.000000" stroke="none" 
	d="
M268.834167,316.257812 
	C266.758057,316.703583 264.655518,316.703583 262.023041,316.703583 
	C262.023041,311.860809 262.037964,307.242340 262.018585,302.624023 
	C262.001495,298.551971 261.427368,294.713562 256.293610,294.282806 
	C252.680008,293.979584 249.833542,297.614685 249.659439,302.721344 
	C249.502213,307.333252 249.626236,311.954803 249.626236,316.785797 
	C247.203049,316.785797 245.424515,316.785797 243.279846,316.785797 
	C243.279846,307.643555 243.279846,298.599976 243.279846,288.587982 
	C245.732559,289.256500 247.829391,289.828003 250.840149,290.648621 
	C257.471161,286.519897 258.894073,286.674011 266.951508,292.957703 
	C267.236511,293.179993 268.318756,292.380005 269.134827,291.785095 
	C273.093445,288.317261 277.332214,286.697601 282.117493,289.154022 
	C286.697144,291.504852 287.748962,295.928986 287.879700,300.575165 
	C288.028351,305.857574 287.914032,311.147369 287.914032,316.717407 
	C285.552246,316.717407 283.662170,316.717407 281.156311,316.717407 
	C281.156311,311.526672 281.182312,306.577576 281.147644,301.628937 
	C281.122406,298.020050 280.287201,294.896637 275.936829,294.453156 
	C272.327637,294.085266 269.239197,296.926300 268.961334,301.341461 
	C268.658752,306.149139 268.838379,310.987213 268.834167,316.257812 
z"/>
<path fill="#A4CB36" opacity="1.000000" stroke="none" 
	d="
M302.943665,231.377960 
	C306.750366,227.454315 311.382446,227.022156 316.569397,226.934784 
	C326.296722,229.216339 328.185364,230.863724 328.842041,237.503296 
	C326.022095,238.034851 323.504486,239.030457 321.192444,235.700012 
	C319.127411,232.725418 313.149628,232.191376 310.209167,234.352310 
	C309.162292,235.121643 307.974426,236.965988 308.235504,237.953583 
	C308.634521,239.462830 309.980927,241.319489 311.374725,241.852081 
	C315.075592,243.266205 319.102234,243.810471 322.844391,245.137482 
	C329.794800,247.602203 332.779327,253.463028 329.727844,259.624542 
	C328.474243,262.155823 325.558868,264.956024 322.957764,265.492462 
	C318.093964,266.495544 312.907745,265.935455 307.442200,265.960388 
	C303.725708,263.002625 299.813416,260.493347 300.157959,254.935776 
	C303.308197,254.314392 305.892792,253.343979 307.975891,257.378937 
	C310.082306,261.458984 318.292267,262.185272 321.851868,259.252167 
	C324.850464,256.781342 324.070862,252.576385 320.037445,251.042007 
	C316.494598,249.694244 312.657440,249.129044 309.093231,247.826843 
	C301.071503,244.896088 299.044159,239.492767 302.943665,231.377960 
z"/>
<path fill="#A4CB35" opacity="1.000000" stroke="none" 
	d="
M305.639709,287.962891 
	C309.145569,288.750397 312.289337,289.631195 315.005676,290.392212 
	C317.496552,289.763428 319.843964,289.170868 322.690247,288.452332 
	C322.690247,298.323120 322.690247,307.389893 322.690247,317.323883 
	C320.053925,316.738647 317.747131,316.226532 314.634979,315.535675 
	C312.737152,316.117371 309.763031,317.028931 306.394806,318.008881 
	C297.576935,315.829254 293.366394,310.863983 293.294006,303.093018 
	C293.223694,295.541321 297.377899,290.328766 305.639709,287.962891 
M303.451233,310.111572 
	C309.086426,312.749664 314.031036,311.222687 315.774994,306.305756 
	C317.567291,301.252686 315.165314,296.081604 310.305237,294.581909 
	C306.596985,293.437653 303.621460,294.809143 301.633759,297.818695 
	C298.910278,301.942200 299.408600,306.008942 303.451233,310.111572 
z"/>
<path fill="#0399C1" opacity="1.000000" stroke="none" 
	d="
M268.133972,178.217087 
	C262.405304,172.999207 256.941284,167.533340 251.404572,161.724792 
	C256.113251,157.376251 259.329987,151.280243 266.644592,150.080688 
	C272.544830,150.590149 277.014496,152.881989 278.717407,158.536652 
	C280.390472,164.092255 278.277344,168.602066 274.082703,172.353592 
	C272.099915,174.126907 270.287994,176.091293 268.133972,178.217087 
z"/>
<path fill="#139FC5" opacity="1.000000" stroke="none" 
	d="
M282.589417,346.416565 
	C281.559662,347.291443 280.758636,348.465637 279.300903,350.602448 
	C279.140747,347.898193 279.034424,346.102203 278.931091,344.357452 
	C287.514252,341.899963 289.496948,343.001587 288.491272,350.463287 
	C287.501251,348.576630 286.870087,347.373871 285.892853,345.511597 
	C285.253082,347.332794 284.829895,348.537476 283.957092,351.022095 
	C283.348877,348.722534 283.083496,347.719208 282.589417,346.416565 
z"/>
<path fill="#1FA3C8" opacity="1.000000" stroke="none" 
	d="
M269.366638,350.144775 
	C265.641022,348.152527 266.096222,345.819763 268.722778,343.160370 
	C270.537933,344.177673 272.077484,345.370728 273.617065,346.563782 
	C272.325134,347.744934 271.033173,348.926056 269.366638,350.144775 
z"/>
<path fill="#22A4C9" opacity="1.000000" stroke="none" 
	d="
M294.519653,345.586121 
	C296.337494,344.805115 298.001648,344.361603 299.665833,343.918091 
	C299.919189,345.086548 300.674774,346.464203 300.297485,347.369934 
	C299.836761,348.475891 298.424988,349.185669 297.424500,350.066742 
	C296.404999,348.685699 295.385529,347.304626 294.519653,345.586121 
z"/>
<path fill="#23A4CA" opacity="1.000000" stroke="none" 
	d="
M306.014343,344.505585 
	C308.432678,342.943207 310.125824,342.506073 310.712677,346.219025 
	C311.260681,349.686462 309.923370,350.307770 306.682739,349.930023 
	C306.191376,348.228424 306.092468,346.576263 306.014343,344.505585 
z"/>
<path fill="#A5CC34" opacity="1.000000" stroke="none" 
	d="
M152.430664,317.103516 
	C151.726990,316.760406 151.220200,316.364197 151.221832,315.970184 
	C151.273956,303.576416 151.375549,291.182831 151.739899,278.489563 
	C153.792953,278.345490 155.575745,278.501129 157.706146,278.687103 
	C157.706146,282.921112 157.706146,286.866150 157.706146,290.674622 
	C158.357346,290.928680 158.743423,291.214142 158.897171,291.120056 
	C169.433456,284.671783 177.291473,288.460358 178.154266,300.646851 
	C178.527313,305.916168 178.216812,311.233826 178.216812,316.766815 
	C175.993301,316.766815 174.056381,316.766815 171.508270,316.766815 
	C171.508270,311.791779 171.612640,307.000000 171.480774,302.214752 
	C171.329773,296.735657 169.334305,294.295837 165.283615,294.230835 
	C161.474579,294.169708 158.168396,297.585083 157.967590,302.228302 
	C157.767227,306.861603 157.923645,311.510345 157.923645,316.655243 
	C156.018280,316.804474 154.441437,316.927979 152.430664,317.103516 
z"/>
<path fill="#22A7C6" opacity="1.000000" stroke="none" 
	d="
M151.344681,350.131226 
	C149.704620,349.197021 147.473083,348.210724 147.382019,347.055664 
	C147.286697,345.847015 149.248367,344.476166 150.655334,343.083099 
	C154.557205,344.999084 155.661362,347.251038 151.344681,350.131226 
z"/>
<path fill="#26A8C7" opacity="1.000000" stroke="none" 
	d="
M159.578293,344.215912 
	C161.212662,343.627106 162.750931,343.389252 164.392715,343.135406 
	C164.246918,345.571228 164.131668,347.496735 163.993683,349.802063 
	C162.914825,349.802063 161.362823,349.802063 159.808350,349.802063 
	C159.696289,348.003387 159.589249,346.285126 159.578293,344.215912 
z"/>
<path fill="#109DC5" opacity="1.000000" stroke="none" 
	d="
M331.051575,340.357819 
	C330.019928,341.357697 328.667725,342.154724 326.743713,343.288788 
	C327.806244,344.204346 328.845184,345.099579 329.842712,345.959137 
	C328.405792,347.262207 326.975891,348.558868 325.065674,350.291168 
	C325.065674,346.813995 325.065674,343.807861 325.065674,340.154938 
	C326.960297,340.154938 328.845673,340.154938 331.051575,340.357819 
z"/>
<path fill="#1BA2C7" opacity="1.000000" stroke="none" 
	d="
M257.344727,347.712158 
	C258.728516,348.071228 259.744019,348.268433 260.759491,348.465668 
	C260.632874,349.030334 260.506287,349.595001 260.379700,350.159668 
	C258.399323,349.521393 255.590576,349.448425 254.664124,348.090881 
	C253.674286,346.640472 253.699463,343.459808 254.695343,341.996674 
	C255.609940,340.652985 258.405914,340.589905 260.651398,340.724121 
	C257.841278,342.461090 253.429230,342.654510 257.344727,347.712158 
z"/>
<path fill="#1EA4C7" opacity="1.000000" stroke="none" 
	d="
M236.800964,345.824646 
	C235.670670,346.916687 234.803604,348.265625 233.419418,350.419006 
	C233.419418,346.624054 233.419418,343.638916 233.419418,339.770538 
	C235.404022,343.529510 241.782791,343.845886 238.601273,350.925049 
	C237.874405,348.634613 237.469299,347.358063 236.800964,345.824646 
z"/>
<path fill="#A5CC33" opacity="1.000000" stroke="none" 
	d="
M132.536636,279.886536 
	C141.288223,280.451874 146.135147,284.658020 146.572235,291.602631 
	C147.020752,298.729218 142.579269,303.805695 134.390137,305.164612 
	C131.208817,305.247894 128.416824,305.247894 125.060745,305.247894 
	C125.060745,309.059479 125.060745,312.629059 125.060745,316.736359 
	C122.630249,316.843719 120.729416,316.927704 118.377327,317.031616 
	C118.377327,304.761963 118.377327,292.745483 118.377327,279.948059 
	C122.904556,279.948059 127.488716,279.948059 132.536636,279.886536 
M138.671234,289.265320 
	C135.026886,283.941925 129.920746,286.470886 125.169952,286.110352 
	C125.169952,290.667755 125.169952,294.569305 125.169952,298.410156 
	C136.303711,300.343262 139.877930,298.115356 138.671234,289.265320 
z"/>
<path fill="#14A0C4" opacity="1.000000" stroke="none" 
	d="
M134.184372,342.871704 
	C138.311050,339.231812 138.592407,339.208649 140.704742,341.479523 
	C139.184738,342.487091 137.616592,343.526611 136.048462,344.566132 
	C137.523376,346.148529 138.998291,347.730957 141.224991,350.119934 
	C138.948669,349.454407 136.963181,348.873871 134.727234,348.069214 
	C134.355682,346.312805 134.234604,344.780518 134.184372,342.871704 
z"/>
<path fill="#B6E2E1" opacity="1.000000" stroke="none" 
	d="
M195.218170,295.057037 
	C200.074081,293.140991 203.475098,294.748016 205.740585,298.643738 
	C207.906219,302.367767 207.339584,306.106537 204.348907,309.191833 
	C201.613342,312.013916 198.232498,312.487854 194.749191,310.653778 
	C189.301407,307.785278 189.393829,299.836731 195.218170,295.057037 
z"/>
<path fill="#AAD4EB" opacity="1.000000" stroke="none" 
	d="
M303.151550,309.873718 
	C299.408600,306.008942 298.910278,301.942200 301.633759,297.818695 
	C303.621460,294.809143 306.596985,293.437653 310.305237,294.581909 
	C315.165314,296.081604 317.567291,301.252686 315.774994,306.305756 
	C314.031036,311.222687 309.086426,312.749664 303.151550,309.873718 
z"/>
<path fill="#BEECE0" opacity="1.000000" stroke="none" 
	d="
M138.827148,289.654022 
	C139.877930,298.115356 136.303711,300.343262 125.169952,298.410156 
	C125.169952,294.569305 125.169952,290.667755 125.169952,286.110352 
	C129.920746,286.470886 135.026886,283.941925 138.827148,289.654022 
z"/>
</svg>